<?xml version="1.0" encoding="UTF-8" standalone="no"?><!-- Generator: Gravit.io --><svg xmlns="http://www.w3.org/2000/svg" xmlns:xlink="http://www.w3.org/1999/xlink" style="isolation:isolate" viewBox="116.048 192.62 392.068 316.692" width="392.068pt" height="316.692pt"><defs><clipPath id="_clipPath_h8vl7xN7ypmku6FH3Xyu0LMfmOnkgvIH"><rect x="116.048" y="192.62" width="392.068" height="316.692"/></clipPath></defs><g clip-path="url(#_clipPath_h8vl7xN7ypmku6FH3Xyu0LMfmOnkgvIH)"><rect x="155.906" y="157.643" width="311.811" height="390.442" transform="matrix(0,-1,1,0,-41.053,664.675)" fill="rgb(0,128,0)" vector-effect="non-scaling-stroke" stroke-width="0.542" stroke="rgb(255,255,255)" stroke-linejoin="miter" stroke-linecap="butt" stroke-miterlimit="2"/><mask id="_mask_xNy7rPK8N1IrS3jiWR5So18IOze96wMG" x="-200%" y="-200%" width="400%" height="400%"><rect x="-200%" y="-200%" width="400%" height="400%" style="fill:white;"/><path d=" M 127.436 339.307 L 127.436 481.656 L 496.186 481.656 L 496.186 196.958 L 127.436 196.958 L 127.436 339.307 L 496.186 339.307 L 127.436 339.307 Z " fill="black" stroke="none"/></mask><path d=" M 127.436 339.307 L 127.436 481.656 L 496.186 481.656 L 496.186 196.958 L 127.436 196.958 L 127.436 339.307 L 496.186 339.307 L 127.436 339.307 Z " fill="rgb(0,128,0)" mask="url(#_mask_xNy7rPK8N1IrS3jiWR5So18IOze96wMG)" vector-effect="non-scaling-stroke" stroke-width="2.169" stroke="rgb(255,255,255)" stroke-linejoin="miter" stroke-linecap="butt" stroke-miterlimit="4"/><path d=" M 127.436 339.307 L 127.436 481.656 L 496.186 481.656 L 496.186 196.958 L 127.436 196.958 L 127.436 339.307 L 496.186 339.307 L 127.436 339.307 Z " fill="rgb(0,128,0)"/><path d=" M 361.411 195.833 C 361.425 196.206 361.43 196.582 361.43 196.958 C 361.43 224.344 339.196 246.577 311.811 246.577 C 284.426 246.577 262.192 224.344 262.192 196.958 C 262.192 196.582 262.197 196.206 262.212 195.833" fill="none" vector-effect="non-scaling-stroke" stroke-width="1.085" stroke="rgb(255,255,255)" stroke-linejoin="miter" stroke-linecap="butt" stroke-miterlimit="4"/><path d=" M 311.811 198.043 C 311.212 198.043 310.726 197.557 310.726 196.958 C 310.726 196.36 311.212 195.874 311.811 195.874 C 312.41 195.874 312.896 196.36 312.896 196.958 C 312.896 197.557 312.41 198.043 311.811 198.043 Z " fill="rgb(255,255,255)" vector-effect="non-scaling-stroke" stroke-width="0.542" stroke="rgb(255,255,255)" stroke-linejoin="miter" stroke-linecap="butt" stroke-miterlimit="4"/><path d=" M 311.811 423.089 C 311.212 423.089 310.726 422.603 310.726 422.005 C 310.726 421.406 311.212 420.92 311.811 420.92 C 312.41 420.92 312.896 421.406 312.896 422.005 C 312.896 422.603 312.41 423.089 311.811 423.089 Z " fill="rgb(255,255,255)" vector-effect="non-scaling-stroke" stroke-width="0.542" stroke="rgb(255,255,255)" stroke-linejoin="miter" stroke-linecap="butt" stroke-miterlimit="4"/><mask id="_mask_qghdx5Wg69a1dmWbU8ktFvXdjdzvrsts" x="-200%" y="-200%" width="400%" height="400%"><rect x="-200%" y="-200%" width="400%" height="400%" style="fill:white;"/><path d=" M 262.68 481.656 L 262.68 451.83 L 361.484 451.83 L 361.484 481.656 L 262.68 481.656 Z " fill="black" stroke="none"/></mask><path d=" M 262.68 481.656 L 262.68 451.83 L 361.484 451.83 L 361.484 481.656 L 262.68 481.656 Z " fill="none" mask="url(#_mask_qghdx5Wg69a1dmWbU8ktFvXdjdzvrsts)" vector-effect="non-scaling-stroke" stroke-width="2.169" stroke="rgb(255,255,255)" stroke-linejoin="miter" stroke-linecap="butt" stroke-miterlimit="4"/><path d=" M 262.68 481.656 L 262.68 451.83 L 361.484 451.83 L 361.484 481.656 L 262.68 481.656 Z " fill="none"/><mask id="_mask_3ZaJzxPTmDahnyTfiMjebI9hm2v7QS4T" x="-200%" y="-200%" width="400%" height="400%"><rect x="-200%" y="-200%" width="400%" height="400%" style="fill:white;"/><path d=" M 203.03 481.656 L 203.03 392.179 L 421.135 392.179 L 421.135 481.656 L 203.03 481.656 Z " fill="black" stroke="none"/></mask><path d=" M 203.03 481.656 L 203.03 392.179 L 421.135 392.179 L 421.135 481.656 L 203.03 481.656 Z " fill="none" mask="url(#_mask_3ZaJzxPTmDahnyTfiMjebI9hm2v7QS4T)" vector-effect="non-scaling-stroke" stroke-width="2.169" stroke="rgb(255,255,255)" stroke-linejoin="miter" stroke-linecap="butt" stroke-miterlimit="4"/><path d=" M 203.03 481.656 L 203.03 392.179 L 421.135 392.179 L 421.135 481.656 L 203.03 481.656 Z " fill="none"/><mask id="_mask_SIsLCEqY8oitwIJQIL2m7eNDLAPsvooM" x="-200%" y="-200%" width="400%" height="400%"><rect x="-200%" y="-200%" width="400%" height="400%" style="fill:white;"/><path d=" M 272.157 391.179 C 281.53 378.717 296.217 371.386 311.811 371.386 C 327.405 371.386 342.092 378.717 351.465 391.179 L 272.157 391.179 Z " fill="black" stroke="none"/></mask><path d=" M 272.157 391.179 C 281.53 378.717 296.217 371.386 311.811 371.386 C 327.405 371.386 342.092 378.717 351.465 391.179 L 272.157 391.179 Z " fill="rgb(0,128,0)" mask="url(#_mask_SIsLCEqY8oitwIJQIL2m7eNDLAPsvooM)" vector-effect="non-scaling-stroke" stroke-width="2.169" stroke="rgb(255,255,255)" stroke-linejoin="miter" stroke-linecap="butt" stroke-miterlimit="4"/><path d=" M 272.157 391.179 C 281.53 378.717 296.217 371.386 311.811 371.386 C 327.405 371.386 342.092 378.717 351.465 391.179 L 272.157 391.179 Z " fill="rgb(0,128,0)"/><mask id="_mask_98dWJTrQRdrqPqiPDxGMnpsJkQYFh5s3" x="-200%" y="-200%" width="400%" height="400%"><rect x="-200%" y="-200%" width="400%" height="400%" style="fill:white;"/><path d=" M 132.859 481.656 C 132.859 478.661 130.431 476.233 127.436 476.233 L 127.436 481.656 L 132.859 481.656 Z " fill="black" stroke="none"/></mask><path d=" M 132.859 481.656 C 132.859 478.661 130.431 476.233 127.436 476.233 L 127.436 481.656 L 132.859 481.656 Z " fill="none" mask="url(#_mask_98dWJTrQRdrqPqiPDxGMnpsJkQYFh5s3)" vector-effect="non-scaling-stroke" stroke-width="2.169" stroke="rgb(255,255,255)" stroke-linejoin="miter" stroke-linecap="butt" stroke-miterlimit="4"/><path d=" M 132.859 481.656 C 132.859 478.661 130.431 476.233 127.436 476.233 L 127.436 481.656 L 132.859 481.656 Z " fill="none"/><mask id="_mask_EGwtFhLe3XGF0khy27RqQigy95i0lYtY" x="-200%" y="-200%" width="400%" height="400%"><rect x="-200%" y="-200%" width="400%" height="400%" style="fill:white;"/><path d=" M 496.186 476.233 C 493.191 476.233 490.763 478.661 490.763 481.656 L 496.186 481.656 L 496.186 476.233 Z " fill="black" stroke="none"/></mask><path d=" M 496.186 476.233 C 493.191 476.233 490.763 478.661 490.763 481.656 L 496.186 481.656 L 496.186 476.233 Z " fill="none" mask="url(#_mask_EGwtFhLe3XGF0khy27RqQigy95i0lYtY)" vector-effect="non-scaling-stroke" stroke-width="2.169" stroke="rgb(255,255,255)" stroke-linejoin="miter" stroke-linecap="butt" stroke-miterlimit="4"/><path d=" M 496.186 476.233 C 493.191 476.233 490.763 478.661 490.763 481.656 L 496.186 481.656 L 496.186 476.233 Z " fill="none"/><g opacity="0.21"><rect x="116.861" y="451.83" width="390.442" height="29.825" transform="matrix(1,0,0,1,0,0)" fill="rgb(255,255,255)"/></g><g opacity="0.21"><rect x="117.675" y="391.095" width="390.442" height="29.825" transform="matrix(1,0,0,1,0,0)" fill="rgb(255,255,255)"/></g><g opacity="0.21"><rect x="116.59" y="326.444" width="390.442" height="29.825" transform="matrix(1,0,0,1,0,0)" fill="rgb(255,255,255)"/></g><g opacity="0.21"><rect x="117.675" y="264.793" width="390.442" height="29.825" transform="matrix(1,0,0,1,0,0)" fill="rgb(255,255,255)"/></g><g opacity="0.21"><rect x="117.675" y="197.326" width="390.442" height="29.825" transform="matrix(1,0,0,1,0,0)" fill="rgb(255,255,255)"/></g></g></svg>